<?xml version="1.0" encoding="UTF-8" standalone="no"?>
<!-- Created with Inkscape (http://www.inkscape.org/) -->

<svg
   width="1615.9656"
   height="1970.6897"
   viewBox="355 115 103.10197 264.58334"
   version="1.1"
   id="svg1"
   xml:space="preserve"
   sodipodi:docname="cone-ninja-logo.svg"
   inkscape:version="1.4.2 (f4327f4, 2025-05-13)"
   xmlns:inkscape="http://www.inkscape.org/namespaces/inkscape"
   xmlns:sodipodi="http://sodipodi.sourceforge.net/DTD/sodipodi-0.dtd"
   xmlns="http://www.w3.org/2000/svg"
   xmlns:svg="http://www.w3.org/2000/svg"><sodipodi:namedview
     id="namedview1"
     pagecolor="#505050"
     bordercolor="#eeeeee"
     borderopacity="1"
     inkscape:showpageshadow="0"
     inkscape:pageopacity="0"
     inkscape:pagecheckerboard="0"
     inkscape:deskcolor="#505050"
     inkscape:document-units="mm"
     showgrid="false"
     inkscape:zoom="0.35355339"
     inkscape:cx="755.19004"
     inkscape:cy="1039.447"
     inkscape:window-width="2400"
     inkscape:window-height="1261"
     inkscape:window-x="2391"
     inkscape:window-y="-9"
     inkscape:window-maximized="1"
     inkscape:current-layer="layer1" /><defs
     id="defs1" /><g
     inkscape:label="Layer 1"
     inkscape:groupmode="layer"
     id="layer1"
     style="display:inline"
     transform="translate(-150.54095,-14.548561)"><g
       id="g35"
       inkscape:label="logo"
       transform="matrix(0.88362067,0,0,0.88417333,121.44058,15.005182)"><path
         style="display:inline;fill:#000000"
         d="M 370.26317,279.17043 V 129.54856 H 493.02984 615.79651 V 279.17043 428.7923 H 493.02984 370.26317 Z"
         id="path1"
         inkscape:label="logo background" /><g
         id="g12"
         style="display:inline;fill:#d40000"
         inkscape:label="logo cone ninja"><g
           id="g31"
           inkscape:label="cone-divided"
           style="display:inline"><g
             id="g30"
             inkscape:label="cone-right"
             style="fill:#d45500;fill-opacity:1"><path
               id="path18"
               style="display:inline;fill:#d45500;fill-opacity:1"
               d="m 490.20109,218.09211 c 2.58201,0.0337 5.05593,-0.0258 7.37164,-0.18241 10.27161,-0.69483 19.32623,-2.248 27.77815,-4.76509 1.46582,-0.43654 1.81065,-0.63725 1.70997,-0.99477 -0.82589,-2.9329 -4.83932,-17.48035 -7.56904,-27.43553 -1.03745,-3.78354 -2.34906,-8.54605 -2.91507,-10.58334 -1.01931,-3.6689 -3.0587,-11.09826 -7.11791,-25.92916 l -2.10013,-7.67292 -1.42007,-1.32292 c -2.35044,-2.19 -5.58678,-3.52829 -10.26294,-4.24315 -1.8172,-0.2778 -3.66347,-0.38972 -5.4746,-0.35088 z"
               inkscape:label="cone-right upper" /><path
               id="path19"
               style="display:inline;fill:#d45500;fill-opacity:1"
               d="m 490.20109,413.89205 c 0.47974,2e-5 0.97817,-0.01 1.50585,-0.0253 2.85416,-0.0854 4.18596,-0.26498 6.6275,-0.89349 3.12827,-0.80529 4.18182,-1.21697 13.34854,-5.21467 5.66103,-2.46883 50.51026,-21.86561 64.55833,-27.92077 4.65667,-2.00717 11.14557,-4.80353 14.41979,-6.21461 8.6439,-3.72522 9.73254,-4.27975 11.10475,-5.6534 1.95753,-1.95959 2.5213,-3.38659 2.5213,-6.38153 0,-2.21995 -0.087,-2.69044 -0.74414,-4.02869 -1.05966,-2.15789 -2.85763,-3.62245 -6.38566,-5.20072 -8.70905,-3.89602 -25.70006,-11.1435 -26.1245,-11.1435 -0.16123,0 -0.20313,0.27838 -0.10232,0.68006 0.51648,2.05782 0.69256,5.09863 0.42323,7.31377 -1.24586,10.24648 -9.63666,17.68078 -25.14266,22.27616 -2.70907,0.80286 -7.12365,1.79522 -7.47086,1.67948 -0.006,-0.002 -0.0106,-0.005 -0.0129,-0.009 -0.0436,-0.078 0.78855,-0.49817 1.91875,-0.96479 4.98496,-2.05815 10.92357,-5.94916 14.56655,-9.54464 4.41168,-4.35415 7.13807,-9.70295 7.13807,-14.00276 0,-1.04254 -1.00985,-5.17653 -3.55689,-14.56242 -3.7049,-13.65257 -5.45264,-20.14975 -8.11578,-30.17232 -0.87001,-3.27422 -1.64302,-6.13177 -1.71825,-6.35 -0.0807,-0.23398 -0.50862,0.44593 -1.04283,1.65726 -3.31936,7.52673 -9.92629,16.36897 -18.5446,24.81812 -9.12172,8.94267 -18.31952,15.66939 -28.00811,20.48403 -4.77344,2.37211 -7.87184,3.4673 -11.16314,3.23959 z"
               inkscape:label="cone-right lower" /></g><g
             id="g29"
             inkscape:label="cone-left"
             style="display:inline;fill:#f8711a;fill-opacity:1"><path
               id="path28"
               style="display:inline;fill:#f8711a;fill-opacity:1"
               d="m 490.20109,218.09211 v -83.48017 c -5.98907,0.12843 -11.59406,1.90906 -14.49421,4.82296 -1.34554,1.35191 -1.35686,1.37823 -2.46807,5.59191 -0.61402,2.32833 -2.11648,7.86473 -3.33829,12.30312 -1.22181,4.43838 -3.23578,11.76074 -4.4757,16.27188 -1.23992,4.51115 -3.56609,12.97354 -5.16919,18.80557 -1.6031,5.83203 -3.50862,12.73556 -4.23489,15.34118 -0.72627,2.60563 -1.28081,4.77773 -1.23196,4.82658 0.2531,0.2531 7.72935,2.22596 10.65826,2.81275 8.318,1.66645 17.02025,2.60342 24.75405,2.70422 z"
               inkscape:label="cone-left upper" /><path
               id="path29"
               style="display:inline;fill:#f8711a;fill-opacity:1"
               d="M 490.20109,413.89205 V 347.7581 c -2.92275,-0.20221 -5.99761,-1.44766 -10.53269,-3.76773 -8.38738,-4.29083 -15.21528,-9.05616 -23.25026,-16.22691 -9.2099,-8.21931 -17.60972,-18.70201 -21.72994,-27.11825 l -1.66295,-3.39617 -0.28112,0.88263 c -0.15477,0.48543 -1.71964,6.29998 -3.47731,12.92118 -1.75767,6.6212 -3.53953,13.28869 -3.95996,14.81666 -0.85167,3.0952 -1.68042,6.17074 -2.1208,7.87136 -0.16015,0.61846 -0.39606,1.12448 -0.52452,1.12448 -0.12846,0 -4.85698,2.15675 -10.50737,4.79299 -5.65039,2.63624 -14.67859,6.81775 -20.06286,9.29194 -5.38427,2.4742 -10.32536,4.87683 -10.98021,5.33921 -4.36006,3.07861 -4.87369,9.68578 -1.05833,13.61725 1.33511,1.37574 2.24895,1.82611 13.66377,6.73964 12.91205,5.55801 36.28995,15.64433 38.72373,16.70699 1.09141,0.47653 7.52078,3.25002 14.2875,6.16345 6.76672,2.91342 16.86366,7.27323 22.43791,9.6883 13.04261,5.65076 16.01784,6.68669 21.03541,6.68693 z"
               inkscape:label="cone-left lower" /></g><g
             id="g21"
             style="display:inline;fill:#ff9955"
             inkscape:label="shadows"><path
               style="display:inline;fill:#ff9955"
               d="m 458.71921,212.03219 c 0.76115,-2.72971 4.18635,-15.61134 7.29904,-27.45052 3.28809,-12.50633 8.71031,-33.03151 10.0857,-38.17819 l 0.79223,-2.96452 1.45568,-1.38077 c 2.36441,-2.24274 6.35423,-3.83005 11.17226,-4.44478 l 1.38907,-0.17723 v -1.33771 -1.33771 l -2.33445,0.1657 c -4.39301,0.31183 -8.26688,1.43343 -10.94671,3.16942 -2.23679,1.44898 -2.8368,2.2536 -3.52163,4.72259 -0.33684,1.21439 -1.52741,5.54174 -2.64571,9.61632 -4.40644,16.05509 -6.3476,23.11562 -8.72906,31.75 -5.04177,18.27973 -7.49598,27.26538 -7.58357,27.76589 l -0.0899,0.51381 1.45521,0.46222 c 0.80037,0.25421 1.53606,0.46948 1.63487,0.47837 0.0988,0.009 0.35396,-0.60891 0.56699,-1.37289 z"
               id="path21"
               inkscape:label="cone shadow upper" /><path
               style="display:inline;fill:#ff9955"
               d="m 379.2563,364.37187 c 0.31551,-0.65175 1.18933,-1.73558 1.94183,-2.4085 l 1.36818,-1.2235 14.02292,-6.87875 c 7.7126,-3.78331 16.3193,-8.01317 19.126,-9.39969 2.80669,-1.38653 5.14878,-2.47525 5.20464,-2.4194 0.0559,0.0559 -0.25422,1.52979 -0.68905,3.2754 l -0.7906,3.17383 0.12446,1.98437 c 0.15175,2.41938 0.93867,4.6048 2.15339,5.98032 l 0.91059,1.03114 0.011,-1.82751 c 0.008,-1.25895 0.34697,-3.11104 1.09086,-5.95313 0.93241,-3.56235 5.47471,-20.60464 6.84696,-25.68915 0.25528,-0.94589 1.49632,-5.58932 2.75787,-10.31875 1.26155,-4.72943 2.4016,-8.85471 2.53344,-9.16729 l 0.23971,-0.56834 -1.53248,-3.05855 -1.53247,-3.05854 -1.51269,5.61125 c -0.83198,3.0862 -2.16679,8.05204 -2.96623,11.03522 -0.79945,2.98318 -2.03083,7.56708 -2.7364,10.18646 -0.70557,2.61937 -1.60201,5.96411 -1.99209,7.43276 l -0.70924,2.67025 -3.21468,1.48854 c -1.76807,0.8187 -5.41733,2.51615 -8.10946,3.77213 -2.69214,1.25597 -10.4047,4.82815 -17.13903,7.93817 -6.73433,3.11003 -12.77337,6.01864 -13.42008,6.46359 -2.98388,2.05296 -4.35316,6.34499 -3.1504,9.87492 0.51305,1.50571 0.46082,1.50334 1.16304,0.0528 z"
               id="path17"
               inkscape:label="cone shadow lower" /></g></g><g
           id="g13"
           style="display:inline;fill:#333333"
           inkscape:label="mask"><path
             id="path33"
             style="display:inline;fill:#000000;stroke:none;stroke-width:1.613"
             d="m 469.90513,222.06611 c -7.88043,-1.92101 -17.66624,-5.57127 -21.12425,-6.14388 -6.72575,-0.15584 -8.23189,24.18177 -13.08396,36.98636 -2.19688,5.79757 -5.92015,11.33016 -0.70888,28.49923 4.31401,14.21295 11.69385,25.53698 22.74888,37.85021 12.46141,13.87968 34.17637,20.98861 34.17637,20.98861 3.83588,-1.65755 24.20268,-8.75543 35.1858,-20.98857 11.05503,-12.31323 17.17202,-22.93568 21.48603,-37.14863 5.21127,-17.16907 2.75085,-23.40324 0.55397,-29.20081 -4.85207,-12.80459 -7.24737,-35.34745 -13.81156,-36.821 -4.15255,-0.93218 -10.92598,6.11549 -42.38011,8.14514 0,0 -18.10345,-0.96272 -23.04229,-2.16666 z"
             sodipodi:nodetypes="scssscsssscs"
             inkscape:label="mask background" /><path
             style="display:inline;fill:#333333"
             d="m 432.70484,227.52718 c -2.00029,-1.18602 -4.90111,-3.41289 -6.89072,-5.28979 -3.10203,-2.92629 -7.53523,-8.32198 -9.6346,-11.72633 l -0.73422,-1.19063 1.28758,1.21379 c 3.38287,3.189 7.88351,6.51064 12.1355,8.95646 2.44373,1.40568 7.8203,4.06893 7.93435,3.93022 0.22137,-0.26925 0.66461,-1.27986 0.66461,-1.51537 0,-0.15509 -0.15227,-0.28198 -0.33837,-0.28198 -0.18611,0 -1.4065,-0.692 -2.71198,-1.53779 -2.84714,-1.84458 -6.44741,-5.19475 -8.74608,-8.13853 -3.02788,-3.87764 -6.28717,-9.83473 -7.61005,-13.90909 l -0.5852,-1.80236 -11.42817,7.60066 c -6.28549,4.18036 -11.43142,7.66693 -11.43541,7.74794 -0.004,0.081 0.82887,0.34795 1.85078,0.59321 4.44942,1.06786 10.63132,3.84235 15.49832,6.95578 4.66181,2.98217 8.33433,4.96535 11.74782,6.34388 2.97306,1.20067 8.20591,2.70544 9.525,2.73904 0.56389,0.0144 0.48583,-0.0873 -0.52916,-0.68911 z"
             id="path11"
             sodipodi:nodetypes="ssscsssssssscsssssss"
             inkscape:label="headband upper" /><path
             style="display:inline;fill:#333333"
             d="m 413.37385,253.70188 c 3.05888,-1.79532 8.17359,-5.39518 11.34317,-7.9836 2.84779,-2.32564 9.14446,-8.20961 8.97102,-8.38305 -0.0493,-0.0493 -1.68966,0.73111 -3.64526,1.73423 -5.41087,2.77545 -16.04322,7.48458 -15.31913,6.78492 0.21252,-0.20534 1.88421,-1.66339 3.71489,-3.24011 3.79573,-3.26918 11.87449,-10.50832 11.80139,-10.57488 -0.0267,-0.0244 -1.83457,0.46784 -4.01739,1.09379 -4.57339,1.31148 -8.92014,2.31232 -12.7,2.92417 -3.58398,0.58015 -12.87731,0.80562 -16.20433,0.39314 -2.69508,-0.33413 -5.65052,-0.89173 -6.54214,-1.23431 -0.32558,-0.12509 0.0778,0.53931 1.07377,1.76861 1.63935,2.0234 8.6831,11.10773 13.05749,16.84025 l 2.46446,3.22961 2.01704,-1.09886 c 1.10938,-0.60438 2.90263,-1.61864 3.98502,-2.25391 z"
             id="path10"
             sodipodi:nodetypes="ssssssssssssscss"
             inkscape:label="headband lower" /><path
             style="display:inline;fill:#333333"
             d="m 490.91317,335.78296 c 0,-3.42337 0.0507,-3.86258 0.46302,-4.00731 7.13207,-2.50372 14.24605,-8.95458 17.58383,-15.94477 1.07903,-2.25976 2.13682,-5.05561 1.97426,-5.21817 -0.0487,-0.0487 -0.47096,0.50149 -0.93829,1.2227 -3.33919,5.15324 -10.62797,9.43561 -17.82605,10.4733 l -1.25677,0.18118 v -20.95315 -20.95315 l 0.8599,0.17617 c 1.31222,0.26884 6.11735,1.93776 8.92968,3.10147 6.31845,2.6145 7.70637,3.12868 10.16322,3.76515 1.44242,0.37368 3.74405,0.80447 5.11472,0.9573 11.87495,1.32414 23.66099,-7.43877 26.36147,-19.59971 0.52342,-2.35712 0.73948,-5.49833 0.45496,-6.61458 -0.19966,-0.78335 -0.2402,-0.8216 -0.26311,-0.24827 -0.0466,1.16476 -1.09014,4.79644 -1.93409,6.73056 -1.28744,2.9505 -3.00098,5.37808 -5.60279,7.9375 -6.384,6.27998 -14.11616,8.3324 -23.05212,6.11893 -2.99853,-0.74274 -8.18663,-2.57222 -12.30059,-4.33755 -5.04106,-2.16316 -6.76155,-2.70742 -8.55855,-2.70742 -2.13451,0 -3.25605,0.34498 -9.32999,2.8699 -8.62402,3.58498 -12.6438,4.72444 -17.56563,4.97921 -7.90819,0.40936 -16.13607,-3.92127 -20.69367,-10.89182 -3.54597,-5.42334 -4.68763,-10.58483 -3.81054,-17.22758 1.27516,-9.65755 4.60476,-14.83707 9.91592,-15.42522 2.18396,-0.24185 3.98396,0.0708 10.72795,1.86333 9.7285,2.58582 17.82571,4.08309 25.68847,4.75009 8.91744,0.75647 20.99864,-0.86393 35.58646,-4.77305 8.47421,-2.27085 10.77022,-2.47004 13.32232,-1.15576 2.18595,1.12571 4.17717,3.51518 5.23681,6.28419 0.31262,0.81691 0.61258,1.44111 0.66658,1.38711 0.15802,-0.15803 -0.66779,-3.86761 -1.26255,-5.67147 -0.64784,-1.96479 -2.27903,-4.5044 -3.4791,-5.41662 -2.58691,-1.96642 -4.0068,-2.03298 -10.42193,-0.48854 -5.15569,1.24122 -10.55031,2.18373 -15.83609,2.76675 -4.01831,0.44322 -8.79015,0.76361 -7.9375,0.53294 13.85804,-3.74912 18.64619,-5.3572 23.8125,-7.99732 2.55069,-1.30347 4.89479,-3.34507 4.89479,-4.26313 0,-0.74287 -0.82487,-0.71829 -8.02131,0.23897 -6.40156,0.85153 -15.75441,1.75138 -20.55369,1.97749 l -3.04271,0.14336 1.98438,-0.53252 c 10.06532,-2.70112 12.668,-3.45235 16.93333,-4.88758 6.08124,-2.04625 8.13588,-2.86999 12.82473,-5.14164 4.32756,-2.0966 4.95958,-2.51868 4.37319,-2.92049 -1.03656,-0.71027 -1.73419,-0.60242 -6.60158,1.02058 -9.20563,3.06957 -18.48709,4.78839 -30.17551,5.58816 -9.17533,0.62782 -19.11447,0.0101 -29.89531,-1.8581 -6.20439,-1.07513 -10.35646,-2.11542 -15.20036,-3.80841 -2.31965,-0.81075 -4.52443,-1.47408 -4.89952,-1.47408 -1.04728,0 -2.52103,1.15786 -3.13426,2.46246 -0.80112,1.70431 -1.68761,4.61507 -3.35965,11.03129 -2.26165,8.67879 -5.23643,19.15502 -7.02464,24.73854 -2.54326,7.94108 -2.70361,8.95332 -1.96825,12.42475 0.94527,4.46235 4.07379,9.3519 13.67837,21.37787 1.13408,1.41998 2.06196,2.644 2.06196,2.72004 0,0.23959 -4.02082,-2.54893 -5.95313,-4.12862 -1.93981,-1.58583 -6.40119,-6.06908 -7.61813,-7.6555 -0.39071,-0.50932 -0.7117,-0.77025 -0.71331,-0.57984 -0.002,0.19042 0.36086,1.78718 0.80549,3.54837 3.42251,13.55659 8.86643,23.20313 19.25524,34.11999 9.46486,9.94595 24.24784,19.81368 34.04363,22.72433 2.70358,0.80333 2.51354,1.0553 2.51354,-3.33261 z"
             id="path4"
             sodipodi:nodetypes="scsssscccsssssssssssssssssssssssssssssssscssssssssssssssssscssss"
             inkscape:label="mask" /><path
             style="display:inline;fill:#333333"
             d="m 537.13019,289.15214 c 3.83279,-2.61327 7.20898,-5.51117 8.74638,-7.50733 0.90049,-1.16919 1.20406,-1.85821 1.54495,-3.5066 0.23334,-1.12832 0.37268,-2.10308 0.30963,-2.16612 -0.063,-0.0631 -0.69817,0.63079 -1.41138,1.54186 -2.15962,2.7587 -4.79217,5.68324 -8.96736,9.96197 -2.18549,2.23969 -3.85196,4.02563 -3.70328,3.96875 0.14869,-0.0569 1.71516,-1.08851 3.48106,-2.29253 z"
             id="path6"
             sodipodi:nodetypes="ssssssss"
             inkscape:label="mask cheek" /><path
             style="display:inline;fill:#000000"
             d="m 466.7038,238.40446 c -9.59281,-1.69188 -24.18742,-4.7645 -24.60251,-5.17959 -0.40973,-0.40973 3.05195,-10.52875 4.35142,-12.71988 0.67808,-1.14337 0.15235,-1.26121 5.30213,1.18846 5.32749,2.53419 12.12308,4.89207 21.23812,7.36902 4.0722,1.10659 5.05999,1.45758 3.36813,1.19678 -0.50933,-0.0785 -2.11667,-0.27853 -3.57188,-0.44449 -5.24367,-0.598 -10.66253,-1.55971 -18.05793,-3.20482 -2.65582,-0.59079 -4.99654,-1.00978 -5.2016,-0.93109 -0.86791,0.33305 0.33521,2.98314 2.14235,4.71893 1.9477,1.87081 7.5271,4.43694 15.52031,7.13826 2.64172,0.89277 4.85273,1.66628 4.91337,1.71891 0.15065,0.13076 0.25353,0.14696 -5.40191,-0.85049 z"
             id="path5"
             sodipodi:nodetypes="sssssssssssss"
             inkscape:label="mask highlight" /><path
             style="display:inline;fill:#808080;stroke:#000000;stroke-width:0.0132292"
             d="m 437.56781,245.042 c 0.70559,2.31838 0.50397,7.10632 0.50397,7.10632 0,0 1.76401,-8.9711 2.97358,-14.31344 1.20959,-5.34234 2.82378,-10.34718 3.49231,-12.57792 1.7241,-5.75292 3.30344,-8.02222 11.08414,-7.45266 -7.38986,-3.26221 -9.72965,-2.48084 -11.67215,3.26329 -2.214,6.54695 -3.69449,14.25114 -6.38185,23.97441 z"
             id="path22"
             sodipodi:nodetypes="ccsscsc"
             inkscape:label="mask shadow upper" /><path
             style="display:inline;fill:#808080;stroke:#000000;stroke-width:0.0132292"
             d="m 453.29242,284.15197 c 4.38477,2.11676 9.89789,2.12686 12.34787,1.86477 8.64223,-0.92452 14.36335,-3.67604 22.57892,-7.61031 0,0 -5.59188,5.15975 -8.55567,6.6853 -3.86436,1.98911 -8.81199,3.2442 -13.11417,3.38593 -2.46906,0.0813 -8.52384,-0.65047 -13.25695,-4.32569 z"
             id="path23"
             sodipodi:nodetypes="cscssc"
             inkscape:label="mask shadow mid" /><path
             style="display:inline;fill:#808080;stroke:#000000;stroke-width:0.0132292"
             d="m 438.52283,286.49206 c 4.59726,15.75191 14.43329,24.37624 14.43329,24.37624 -4.88558,-7.04648 -8.00389,-12.72711 -10.47752,-20.91937 z"
             id="path24"
             sodipodi:nodetypes="cccc"
             inkscape:label="mask shadow lower" /></g><g
           id="g14"
           style="display:inline;fill:#000000"
           inkscape:label="face"><path
             style="display:inline;fill:#d45500;fill-opacity:1"
             d="m 469.66936,277.21461 c 3.14429,-0.84597 6.95244,-2.26607 12.12977,-4.52334 3.93609,-1.71609 6.49055,-2.38438 9.11404,-2.38438 2.78632,0 5.14814,0.66603 10.58333,2.98451 7.6899,3.28025 13.53828,4.95299 17.31712,4.95299 6.95827,0 14.04198,-5.24265 16.78704,-12.42407 1.16993,-3.06068 1.4706,-5.38578 1.09163,-8.44162 -0.68835,-5.55052 -1.98757,-9.45234 -3.62661,-10.89143 -1.33684,-1.17377 -2.58844,-1.06832 -9.60876,0.80954 -14.0308,3.7531 -26.31495,5.56981 -35.05729,5.18465 -8.56207,-0.37721 -18.43932,-2.1025 -30.5469,-5.33573 -6.30283,-1.68312 -7.74812,-1.80341 -9.00102,-0.74917 -2.76615,2.32757 -4.65353,12.16026 -3.3199,17.29574 1.74577,6.72254 7.46236,12.47983 14.04582,14.14583 2.4071,0.60914 6.43525,0.36026 10.09173,-0.62352 z"
             id="path7"
             sodipodi:nodetypes="sssssssssssssss"
             inkscape:label="face" /><path
             style="display:inline;fill:#f8711a;fill-opacity:1;stroke:none;stroke-width:0.213;stroke-dasharray:none"
             d="m 491.01421,255.84376 c 3.44028,0.0883 6.88861,-0.31763 10.28986,-0.84191 6.81547,-1.05056 13.79753,-2.60903 20.16994,-4.60029 7.7546,-2.42316 10.26672,-0.3105 11.44855,4.22368 -3.82969,-0.19476 -8.86571,3.08275 -10.33886,4.62125 2.08306,6.1731 -1.86185,9.81464 -4.31816,11.40272 -4.03752,2.6104 -10.14636,-10e-4 -12.02246,-2.80454 -5.66724,1.70873 -8.53725,-1.37744 -11.56139,-7.8721 0.19918,3.56894 1.1253,8.00272 1.90193,11.12819 3.23368,1.00616 11.02462,4.36011 14.34148,5.62812 5.42411,2.07359 11.68009,1.55611 16.13738,-0.82911 4.40332,-2.35634 7.41223,-7.15023 8.80622,-10.70154 1.81769,-4.63075 0.28064,-17.53957 -3.32081,-19.22337 -2.2758,-1.06401 -13.43454,3.09448 -22.07646,4.44337 -10.56402,1.6489 -18.03841,3.82065 -38.96122,0.14031 -10.66695,-1.87632 -20.63462,-6.15927 -22.54418,-4.39659 -4.14141,3.82287 -3.695,15.99609 -3.695,15.99609 0,0 0.87417,-11.17717 6.7352,-13.04945 3.36757,-1.07576 7.05056,1.35663 16.27669,3.69502 10.14958,2.57244 15.08924,2.84406 22.73129,3.04019 z"
             id="path34"
             sodipodi:nodetypes="aasccscccssssssscssaa"
             inkscape:label="face shadow" /><path
             style="fill:#000000"
             d="m 510.83012,271.09559 c -1.1974,-0.39195 -2.06354,-0.92226 -3.175,-1.94397 l -1.52841,-1.40499 -1.89342,0.26721 c -1.6055,0.22658 -2.07752,0.19691 -3.104,-0.1951 -2.13004,-0.81347 -3.73624,-3.19542 -4.29128,-6.36384 l -0.18338,-1.04677 1.12586,0.96369 c 2.31491,1.98148 4.16598,2.27681 6.94341,1.10781 0.89317,-0.37593 4.01497,-2.20769 6.93734,-4.07057 8.22285,-5.24171 10.04221,-6.09384 13.01076,-6.09384 1.6891,0 4.16558,0.74015 5.4918,1.64134 l 0.98491,0.66926 -1.00162,0.1624 c -1.23143,0.19965 -4.35639,1.79576 -6.28838,3.21185 -1.26574,0.92774 -1.41626,1.13466 -1.25105,1.71979 0.10329,0.36583 0.1878,1.67718 0.1878,2.91411 0,1.90871 -0.10826,2.46939 -0.71557,3.70595 -2.09171,4.25897 -6.75055,6.22842 -11.24977,4.75567 z"
             id="path9"
             sodipodi:nodetypes="sscssscssssscssssss"
             inkscape:label="eye right" /><path
             style="fill:#000000"
             d="m 465.7075,271.34192 c -1.63965,-0.38629 -2.89998,-1.16426 -4.32207,-2.66792 -1.89593,-2.00466 -2.57804,-3.89722 -2.41533,-6.70149 0.0675,-1.16416 0.19526,-2.29526 0.2838,-2.51354 0.2889,-0.71223 -4.27445,-3.68321 -6.90969,-4.49857 l -1.50206,-0.46474 1.27613,-0.8093 c 2.26718,-1.4378 5.2491,-1.74514 8.17219,-0.84229 1.72811,0.53376 5.28323,2.5584 10.93044,6.22489 4.43092,2.87681 6.52561,3.87431 8.46232,4.02977 1.84379,0.148 2.68712,-0.18385 4.40016,-1.73148 l 1.07612,-0.9722 -0.18949,1.1856 c -0.249,1.55798 -1.31549,3.90424 -2.20775,4.857 -1.44168,1.53943 -3.55335,2.06459 -6.00431,1.49323 -1.01898,-0.23754 -1.1026,-0.2046 -2.24896,0.88584 -1.52564,1.45123 -2.22927,1.87513 -3.97113,2.39241 -1.53525,0.45591 -3.25786,0.50327 -4.83037,0.13279 z"
             id="path8"
             sodipodi:nodetypes="ssssscssssscssssss"
             inkscape:label="eye left" /></g></g></g></g></svg>
