<?xml version="1.0" encoding="UTF-8" standalone="no"?>
<svg
   viewBox="0 0 431.8 279.4"
   width="431.8"
   height="279.4"
   version="1.1"
   id="svg1"
   sodipodi:docname="track_clean_satellite.svg"
   inkscape:version="1.4.2 (f4327f4, 2025-05-13)"
   xml:space="preserve"
   xmlns:inkscape="http://www.inkscape.org/namespaces/inkscape"
   xmlns:sodipodi="http://sodipodi.sourceforge.net/DTD/sodipodi-0.dtd"
   xmlns="http://www.w3.org/2000/svg"
   xmlns:svg="http://www.w3.org/2000/svg"><defs
     id="defs1"><marker
       style="overflow:visible"
       id="Triangle"
       refX="0"
       refY="0"
       orient="auto-start-reverse"
       inkscape:stockid="Triangle arrow"
       markerWidth="0.5"
       markerHeight="0.5"
       viewBox="0 0 1 1"
       inkscape:isstock="true"
       inkscape:collect="always"
       preserveAspectRatio="xMidYMid"><path
         transform="scale(0.5)"
         style="fill:context-stroke;fill-rule:evenodd;stroke:context-stroke;stroke-width:1pt"
         d="M 5.77,0 -2.88,5 V -5 Z"
         id="path135" /></marker><rect
       x="222.30128"
       y="97.040156"
       width="4.6361503"
       height="2.828477"
       id="rect16" /><clipPath
       clipPathUnits="userSpaceOnUse"
       id="clipPath10"><rect
         style="fill:none;stroke:#000000"
         id="rect11"
         width="781.48749"
         height="458.11334"
         x="-152.06284"
         y="-682.35791"
         transform="rotate(-36.338694)" /></clipPath><marker
       style="overflow:visible"
       id="Triangle-0"
       refX="0"
       refY="0"
       orient="auto-start-reverse"
       inkscape:stockid="Triangle arrow"
       markerWidth="0.5"
       markerHeight="0.5"
       viewBox="0 0 1 1"
       inkscape:isstock="true"
       inkscape:collect="always"
       preserveAspectRatio="xMidYMid"><path
         transform="scale(0.5)"
         style="fill:context-stroke;fill-rule:evenodd;stroke:context-stroke;stroke-width:1pt"
         d="M 5.77,0 -2.88,5 V -5 Z"
         id="path135-6" /></marker></defs><sodipodi:namedview
     id="namedview1"
     pagecolor="#505050"
     bordercolor="#eeeeee"
     borderopacity="1"
     inkscape:showpageshadow="0"
     inkscape:pageopacity="0"
     inkscape:pagecheckerboard="0"
     inkscape:deskcolor="#505050"
     showgrid="false"
     inkscape:zoom="4"
     inkscape:cx="211.125"
     inkscape:cy="152.375"
     inkscape:window-width="1920"
     inkscape:window-height="1111"
     inkscape:window-x="-9"
     inkscape:window-y="-9"
     inkscape:window-maximized="1"
     inkscape:current-layer="svg1" /><g
     inkscape:groupmode="layer"
     id="layer1"
     inkscape:label="Track"
     style="display:inline"><g
       id="g11"
       transform="matrix(1.1175606,0,0,1.1175606,-18.419061,-12.905316)"><g
         id="g10"
         inkscape:label="Track"
         style="display:inline"
         transform="translate(11.549076,-0.962423)"><path
           id="outline"
           d="m 176.2687,91.482754 h 4.31086 c 0,0 0.13795,0.94445 0.15625,1.808453 0.0196,0.921826 1.76391,1.478046 3.00743,1.478046 1.08089,0 97.30903,-3.671395 97.30903,-3.671395 0,0 12.33143,-1.049771 25.32375,3.788768 10.49616,3.90893 16.663,7.282004 20.63418,11.025314 2.60854,2.45884 6.7999,4.81173 6.7999,4.81173 l 5.23672,3.10679 -2.42297,3.56145 -4.99854,-2.63339 c 0,0 -2.48558,-1.01021 -4.77554,-0.48612 -3.23938,0.74138 -4.1821,2.10567 -5.64672,3.89598 -1.46837,1.79487 -13.89895,21.25498 -13.89895,21.25498 0,0 -1.55603,1.52166 -1.33969,4.21516 0.15789,1.96567 0.66113,2.99504 1.49324,3.98012 0.84334,0.99834 8.61019,9.32798 8.61019,9.32798 l -2.03215,6.1378 -5.68507,-8.51046 c 0,0 -4.18263,-6.19138 -7.35739,-8.31165 -3.27354,-2.18624 -12.32209,-4.37096 -18.57499,-5.08976 -5.57522,-0.6409 -11.13594,-1.12387 -11.13594,-1.12387 0,0 -1.68496,0.45307 -2.61836,2.95524 -0.86185,2.31042 -0.93792,5.56949 -0.93792,5.56949 l -4.57234,0.0378 c 0,0 0.0118,-1.9906 -0.96803,-4.24277 -0.67547,-1.55273 -1.61142,-2.90178 -1.61142,-2.90178 0,0 -2.25539,1.28501 -6.82035,2.85299 -2.34019,0.80381 -83.14497,41.94549 -83.14497,41.94549 0,0 -3.78714,1.2946 -5.2331,3.90885 -1.44595,2.61425 -2.1103,3.82666 -4.33786,5.26639 -2.22755,1.43974 -6.20059,4.45774 -8.85801,4.38196 -2.65744,-0.0758 -8.12862,-0.9472 -10.27801,-3.18256 -2.1494,-2.23537 -4.42379,-5.11125 -4.50195,-8.48326 -0.0782,-3.372 -0.85123,-5.6897 -1.67191,-6.9021 -0.82068,-1.2124 -8.48619,-13.04782 -8.48619,-13.04782 0,0 -5.74999,-7.43614 -12.23102,-8.88505 -4.82286,-1.07821 -25.840811,-6.58058 -25.840811,-6.58058 0,0 -5.705662,-1.47762 -7.307937,-3.44777 -1.602276,-1.97015 -3.829829,-5.75894 -5.236705,-9.77502 -1.406876,-4.01609 -9.613651,-26.33194 -9.613651,-26.33194 0,0 -0.625277,-2.72791 -0.195399,-6.36512 0.442492,-3.74395 3.549708,-12.23723 7.10598,-14.889366 3.556268,-2.652137 6.878059,-4.243419 10.825125,-4.357084 3.947069,-0.113663 12.678071,1.003466 16.976848,3.88293 4.2988,2.879462 7.38611,7.42599 7.38611,7.42599 0,0 1.27344,1.87599 2.36768,2.55797 1.09423,0.68198 1.87584,0.75775 2.81376,0.34098 0.9379,-0.41675 7.38609,-4.35707 7.38609,-4.35707 0,0 1.48504,-1.401849 4.14247,-1.667061 2.65743,-0.265215 47.91338,-0.650689 47.91338,-0.650689 0,0 2.26402,0.382225 2.45934,-1.663708 0.13327,-1.396025 0.0755,-1.961379 0.0755,-1.961379 z"
           fill="#e5e5e5"
           stroke="#999999"
           stroke-width="0.441021"
           style="display:inline"
           sodipodi:nodetypes="cccscssccccsscsscccsscsccscscsssssscscsscsssscsscscscc" /><g
           id="g1"
           transform="matrix(0.72607961,0,0,0.72607961,26.007974,30.365156)"><path
             id="island1-outer"
             d="m 88.422181,86.388251 c -5.386514,0.02295 -9.468885,2.049486 -12.242767,3.622569 -2.809898,1.593503 -7.133286,5.703463 -8.50649,10.47451 -1.180891,4.10288 -1.469437,10.11276 -0.899997,12.98704 0.715402,3.61107 4.128702,14.27691 4.128702,14.27691 0,0 1.536461,3.79588 3.153512,5.22408 2.486614,2.19621 4.268256,2.65012 9.742518,2.53651 l 34.202211,-1.7022 c 0,0 1.77926,0.37854 2.89267,-0.3788 1.11341,-0.7573 1.33823,-1.78101 0.70731,-2.86018 -0.63094,-1.07916 -3.74831,-5.28093 -4.49058,-8.53735 -0.74227,-3.25643 -1.33732,-8.17924 -0.81775,-10.8677 0.5196,-2.68846 1.71958,-4.68567 -0.58982,-6.05121 -2.30943,-1.36553 -4.67127,-2.48941 -6.71825,-5.461419 -2.04697,-2.972016 -5.64806,-7.482413 -8.68508,-9.772053 -2.994375,-2.257496 -6.822489,-3.512244 -11.876189,-3.490707 z"
             fill="#d0d0d0"
             stroke="none"
             style="display:inline;stroke-width:1.21525" /><path
             id="island1-inner"
             d="m 101.05467,121.87571 c 1.79967,-0.0412 3.3551,-0.10441 3.98256,-0.23935 0.40881,-0.088 0.67637,-0.75511 0.27045,-1.46226 -0.51411,-0.89564 -2.73633,-3.15661 -2.7721,-5.76777 -0.0357,-2.61114 0.2325,-4.25651 0.42923,-5.06131 0.19673,-0.80481 -0.39346,-1.21615 -1.21615,-1.71693 -0.82269,-0.50075 -2.378645,-1.60959 -3.272867,-2.98671 -0.894224,-1.37711 -3.248321,-4.21896 -6.270806,-5.309908 -3.022488,-1.090951 -6.86088,-0.569532 -8.570287,0.412607 -2.072871,1.190971 -4.983231,2.992161 -5.79766,6.703641 -0.752946,3.43129 -0.190594,5.80686 -0.190594,5.80686 0,0 1.863824,6.44644 2.609347,7.77184 0.469511,0.8347 1.146614,1.86521 2.502034,2.3743 0.723844,0.27186 3.442885,0.30171 4.546692,0.24229 3.332868,-0.17945 9.280021,-0.66497 13.750151,-0.7673 z"
             fill="#bfbfbf"
             stroke="none"
             style="display:inline;stroke-width:1.15954" /></g><g
           id="g2"><path
             id="island2-outer"
             d="m 146.28339,99.892928 c -4.94599,-0.0553 -11.08881,0.398322 -13.51555,0.577352 -3.01155,0.22217 -6.24795,1.3418 -8.91814,3.71851 -2.67018,2.37669 -4.72539,6.18428 -4.69844,10.21856 0.0298,4.46728 3.12203,9.13434 6.55921,10.94526 3.42043,1.80212 5.65657,2.18225 8.13761,2.10216 4.728,-0.15263 7.80103,-0.32321 12.23399,-0.58918 2.74751,-0.16483 5.74976,-0.27849 8.91576,-2.35301 3.11735,-2.04264 6.10503,-6.40295 5.96529,-11.28055 -0.10178,-5.1157 -3.32595,-9.81591 -6.33537,-11.5162 -3.05174,-1.724208 -5.82531,-1.794666 -8.34436,-1.822902 z"
             fill="#d0d0d0"
             stroke="none"
             style="display:inline;stroke-width:0.906746" /><path
             id="island2-inner"
             d="m 133.77357,109.20722 c 1.76472,-0.13019 7.97156,-0.43975 11.96023,-0.39509 1.6233,0.0182 5.53117,0.96977 5.53117,4.38183 0.17963,3.62758 -3.46542,4.85069 -5.67484,4.88466 -4.16992,0.0641 -7.03181,0.22325 -11.24189,0.35916 -2.20879,0.0713 -5.2917,-0.79176 -5.31566,-4.38182 -0.0208,-3.10685 2.45288,-4.67995 4.74099,-4.84874 z"
             fill="#bfbfbf"
             stroke="none"
             style="display:inline;stroke-width:0.823301" /></g><g
           id="g3"><path
             id="island3-outer"
             d="m 192.40626,98.34079 c -4.90295,-0.05486 -11.04774,0.450319 -13.45337,0.62779 -2.98534,0.220222 -6.19357,1.33012 -8.8405,3.68612 -2.64694,2.35603 -4.68426,6.13047 -4.65755,10.12964 0.0296,4.42839 3.09484,9.05481 6.50211,10.84998 3.39066,1.78643 5.60735,2.16325 8.06678,2.08386 4.68685,-0.1513 7.73313,-0.48676 12.12751,-0.75041 2.7236,-0.16341 5.64425,-0.33152 8.78269,-2.38799 3.09022,-2.02485 5.99643,-6.51357 5.8579,-11.34874 -0.10088,-5.07116 -3.18608,-9.34228 -6.1693,-11.02776 -3.02518,-1.709193 -5.71915,-1.834498 -8.21627,-1.86249 z"
             fill="#d0d0d0"
             stroke="none"
             style="display:inline;stroke-width:0.898853" /><path
             id="island3-inner"
             d="m 180.06997,107.32768 c 1.77151,-0.15473 8.01072,-0.41546 12.0193,-0.39704 3.97936,0.0183 5.60952,3.06738 5.50743,4.30138 0.18051,3.64549 -3.22805,4.43355 -5.44763,4.50042 -3.8332,0.11549 -7.52544,0.39404 -11.75681,0.51406 -2.52596,0.0717 -4.7588,-1.3061 -4.8825,-4.3524 -0.14119,-3.47671 2.61812,-4.3968 4.56021,-4.56642 z"
             fill="#bfbfbf"
             stroke="none"
             style="display:inline;stroke-width:0.827366" /></g><g
           id="g4"><path
             id="island4-outer"
             d="m 89.256933,133.67358 c -3.847029,0.2415 -7.982737,-0.0739 -8.507026,2.27993 -0.470306,2.11142 0.619805,4.46856 1.115592,5.28677 2.386081,3.79559 4.516425,4.81839 7.710154,5.97517 3.015843,1.09235 12.582107,3.75574 15.294137,4.28883 2.76618,0.54375 6.09434,1.7794 9.26952,-2.64936 1.88517,-2.62947 1.68691,-4.29223 1.73569,-7.97228 0.0502,-3.78768 -0.45379,-5.53186 -1.92314,-6.96721 -2.01982,-1.97303 -5.24616,-1.40555 -7.94955,-1.23875 -5.44821,0.33616 -9.597269,0.54818 -16.745377,0.9969 z"
             fill="#d0d0d0"
             stroke="none"
             style="display:inline;stroke-width:0.896809" /><path
             id="island4-inner"
             d="m 93.00634,138.44298 c 3.347667,-0.2204 8.47847,-0.46048 12.59215,-0.71117 1.17071,-0.0713 3.01459,-0.17219 3.68912,0.51737 0.78983,0.80742 1.08719,1.7075 1.18713,3.30651 0.0999,1.599 -0.36619,3.85706 -0.77881,4.43259 -0.50091,0.69869 -2.02574,0.86794 -3.53617,0.63193 -1.59901,-0.24983 -11.954168,-2.78058 -13.428249,-3.38021 -1.538613,-0.62589 -3.472837,-1.59901 -4.322307,-2.59838 -0.84947,-0.99938 -0.429176,-1.56059 0.699564,-1.79888 1.1243,-0.23735 2.608652,-0.31489 3.897572,-0.39976 z"
             fill="#bfbfbf"
             stroke="none"
             style="display:inline;stroke-width:0.80993" /></g><g
           id="g5"
           transform="translate(2.25,-1)"><path
             id="island5-outer"
             d="m 152.64029,132.03366 c -2.58524,0.11243 -5.16992,0.23751 -7.75519,0.34924 -5.36354,0.2318 -11.82203,0.6578 -16.09188,0.6663 -2.18673,0.005 -4.43916,0.1419 -6.46712,1.10143 -2.36271,1.11792 -4.22168,3.31753 -4.30317,6.55534 -0.0646,2.56968 0.0393,5.16068 0.44809,7.69845 0.3944,2.44833 0.62124,5.07571 1.92192,7.18713 0.85407,1.3864 2.06525,2.86405 3.64724,3.24988 1.67518,0.40856 3.62504,-0.25344 5.01277,-1.27684 3.31723,-2.44631 6.73338,-5.22891 10.09665,-7.55473 1.54623,-1.06929 6.68193,-3.52377 11.99295,-5.37875 5.26324,-1.83828 10.44907,-2.54816 15.80714,-2.91385 1.46375,-0.0345 4.59049,-0.007 5.46148,-1.47854 0.65132,-1.10001 0.58205,-3.16985 0.48707,-4.52223 -0.11642,-1.65751 -0.84922,-4.1191 -1.70963,-4.46094 -0.97501,-0.38738 -12.36594,0.50923 -18.54832,0.77811 z"
             fill="#d0d0d0"
             stroke="none"
             style="display:inline;stroke-width:0.907666" /><path
             id="island5-inner"
             d="m 148.33971,135.58814 c -6.99812,0.2306 -14.81265,0.78317 -18.53285,1.00519 -4.31247,0.25737 -7.1311,1.2987 -7.37788,4.56855 -0.24678,3.26985 0.37455,9.99903 1.85524,11.60311 1.48069,1.60408 1.72837,1.34981 3.51754,1.28811 0.89458,-0.0308 3.94207,-3.17911 7.9297,-5.82467 4.53985,-3.01194 7.28955,-4.28999 10.4277,-5.90412 2.73259,-1.40553 5.31079,-2.3489 7.18634,-2.95975 1.87555,-0.61086 3.07026,-0.80194 3.0795,-1.31363 0.0152,-0.84383 -0.60774,-2.94927 -1.39291,-2.86975 -1.51867,0.15382 -5.1096,0.35481 -6.69238,0.40696 z"
             fill="#bfbfbf"
             stroke="none"
             style="display:inline" /></g><g
           id="g6"
           transform="translate(-5.5,0.5)"><path
             id="island6-outer"
             d="m 192.73209,129.69379 c -1.16586,0.0481 -5.34946,0.10363 -6.4342,1.3193 -1.5342,1.71934 -1.45302,5.03625 -0.84172,7.02818 0.55088,1.79504 1.81187,3.00948 6.3833,2.57236 6.52899,-0.6243 8.41084,-0.50761 10.17096,1.10881 2.81982,2.58961 1.84437,6.43468 2.15252,11.87964 0.22171,3.91769 -0.18125,9.81612 5.05489,9.53073 5.91311,-0.3223 4.61471,-5.68659 4.4797,-9.76766 -0.12977,-3.92221 -0.7088,-12.83105 -0.82427,-13.90113 -0.4205,-3.89737 0.53641,-7.03872 -1.72723,-9.17371 -1.66834,-1.57352 -5.70883,-1.16429 -7.97604,-1.09251 -4.06917,0.1288 -7.91654,0.39196 -10.43791,0.49599 z"
             fill="#d0d0d0"
             stroke="none"
             style="display:inline;stroke-width:0.903798" /><path
             id="island6-inner"
             d="m 193.3458,132.59033 c 2.49693,-0.0825 5.92697,-0.11938 9.93252,-0.50817 1.31664,-0.1278 4.30995,0.0294 5.1558,0.53153 2.0955,1.24401 1.582,5.20428 1.67431,7.99945 0.08,2.42256 1.06305,15.46741 0.74414,16.68991 -0.31892,1.22252 -0.61125,2.28557 -1.78061,2.23241 -1.16935,-0.0532 -1.64773,-1.35539 -1.86034,-2.15268 -0.21262,-0.79729 -0.53814,-13.02181 -0.75569,-13.89438 -0.82464,-3.3074 -3.24609,-4.89694 -5.23932,-5.72081 -2.0707,-0.85588 -5.42045,-0.62171 -7.44025,-0.3028 -2.01979,0.31892 -4.64447,0.46617 -4.99579,-0.67863 -0.37422,-1.21938 -0.17459,-2.46146 0.67542,-3.31693 0.88911,-0.89481 2.62907,-0.83728 3.88981,-0.8789 z"
             fill="#bfbfbf"
             stroke="none"
             inkscape:label="island6-inner"
             style="display:inline;stroke-width:0.861534" /></g><g
           id="g7"
           transform="matrix(0.90593274,0,0,0.90593274,13.806695,15.696596)"><path
             id="island7-outer"
             d="m 198.13508,144.74568 c -0.1235,-2.4056 -1.51401,-2.47878 -7.59444,-2.21865 -7.81343,0.33426 -23.55344,1.47084 -26.64643,1.78678 -7.80446,0.7972 -20.29776,7.28004 -25.97372,11.7838 -2.69995,2.14236 -8.88412,6.60139 -8.63734,9.37768 0.24678,2.77628 2.40457,5.80789 5.12071,6.29291 3.45493,0.61696 24.14892,-3.26344 29.49033,-3.8868 5.02028,-0.58588 9.66169,0.84007 12.33907,5.42918 2.40498,4.12223 5.30578,4.75054 9.19259,2.89969 3.16377,-1.50656 12.09227,-5.73766 13.0177,-8.32887 0.92543,-2.59119 0.18509,-10.61159 1e-5,-12.95601 -0.18509,-2.34442 -0.17258,-7.53251 -0.30848,-10.17971 z"
             fill="#d0d0d0"
             stroke="none"
             style="display:inline" /><path
             id="island7-inner"
             d="m 145.24935,157.09493 c 3.11144,-1.86466 5.36749,-3.26986 9.03836,-5.18241 3.45049,-1.79772 7.90706,-1.24717 8.4831,1.17221 0.61695,2.5912 0.0925,6.47801 -0.83289,8.32886 -0.43955,0.87909 -3.25198,1.33736 -6.72478,1.85086 -2.35527,0.34826 -17.11226,2.76942 -18.9096,2.43696 -2.13361,-0.39466 -0.18509,-2.09763 1.26475,-3.39323 1.24294,-1.11072 5.16596,-3.70598 7.68106,-5.21325 z"
             fill="#bfbfbf"
             stroke="none"
             style="display:inline"
             sodipodi:nodetypes="ssssssss" /></g><g
           id="g8"><path
             id="island8-outer"
             d="m 154.16992,173.25911 c -2.93309,0.45833 -6.98415,0.99978 -8.96135,1.25487 -2.00183,0.25826 -4.88813,0.47203 -6.09379,1.70339 -0.86178,0.88016 -0.70141,2.16507 0.336,4.08975 1.03736,1.92466 6.02952,8.06215 7.83322,9.79329 1.90565,1.82898 4.41512,1.10145 7.47698,-0.55471 2.31476,-1.25205 7.886,-4.34217 10.15328,-5.37332 1.85609,-0.84413 3.71841,-2.33044 4.49715,-3.95286 0.49719,-1.03582 0.81866,-2.99263 0.0665,-4.4668 -0.78632,-1.54116 -2.18845,-3.29027 -3.61565,-3.49141 -2.89781,-0.40841 -8.32428,0.47152 -11.69229,0.9978 z"
             fill="#d0d0d0"
             stroke="none"
             style="display:inline;stroke-width:0.951359" /><path
             id="island8-inner"
             d="m 153.28258,185.64976 c 2.77834,-1.46412 8.63298,-4.07259 10.94223,-5.12283 0.95701,-0.43523 2.61362,-1.4615 2.17069,-2.32963 -0.39733,-0.77874 -1.62304,-1.41375 -4.2156,-1.39057 -1.96664,0.0175 -6.90047,0.91248 -8.82482,1.17867 -1.8933,0.26191 -5.90739,0.74568 -7.52472,1.04825 -1.29016,0.24136 -1.65767,0.48127 -0.76499,1.60838 0.86747,1.09527 3.24608,4.02646 4.50826,5.3354 0.95615,0.99158 1.34503,0.91804 3.70895,-0.32767 z"
             fill="#bfbfbf"
             stroke="none"
             style="display:inline;stroke-width:0.991109" /></g></g></g></g><g
     inkscape:groupmode="layer"
     id="layer2"
     inkscape:label="Cones"
     style="display:inline"><g
       id="g23-0"
       inkscape:label="corner number"
       transform="translate(44.352219,17.753495)"
       style="display:inline"><circle
         style="fill:#ffffff;fill-opacity:1;stroke:#000000;stroke-width:0.5;stroke-dasharray:none;stroke-opacity:1"
         id="path22-6"
         cx="266.27817"
         cy="95.68914"
         r="3.5" /><text
         xml:space="preserve"
         style="font-size:7.62283px;text-align:start;writing-mode:lr-tb;direction:ltr;text-anchor:start;fill:#ffffff;fill-opacity:1;stroke:#000000;stroke-width:0;stroke-dasharray:none;stroke-opacity:1"
         x="264.36688"
         y="98.097328"
         id="text23-18"><tspan
           sodipodi:role="line"
           id="tspan23-9"
           x="264.36688"
           y="98.097328"
           style="font-style:normal;font-variant:normal;font-weight:normal;font-stretch:normal;font-size:7.62283px;font-family:Calibri;-inkscape-font-specification:Calibri;fill:#000000;fill-opacity:1;stroke-width:0;stroke-dasharray:none">4</tspan></text></g><g
       id="g23-3"
       inkscape:label="corner number"
       transform="translate(34.633055,17.48833)"
       style="display:inline"><circle
         style="fill:#ffffff;fill-opacity:1;stroke:#000000;stroke-width:0.5;stroke-dasharray:none;stroke-opacity:1"
         id="path22-5"
         cx="266.27817"
         cy="95.68914"
         r="3.5" /><text
         xml:space="preserve"
         style="font-size:7.62283px;text-align:start;writing-mode:lr-tb;direction:ltr;text-anchor:start;fill:#ffffff;fill-opacity:1;stroke:#000000;stroke-width:0;stroke-dasharray:none;stroke-opacity:1"
         x="264.3855"
         y="98.097328"
         id="text23-1"><tspan
           sodipodi:role="line"
           id="tspan23-2"
           x="264.3855"
           y="98.097328"
           style="font-style:normal;font-variant:normal;font-weight:normal;font-stretch:normal;font-size:7.62283px;font-family:Calibri;-inkscape-font-specification:Calibri;fill:#000000;fill-opacity:1;stroke-width:0;stroke-dasharray:none">3</tspan></text></g><g
       id="g23-1"
       inkscape:label="corner number"
       transform="translate(44.27094,8.2959416)"
       style="display:inline"><circle
         style="fill:#ffffff;fill-opacity:1;stroke:#000000;stroke-width:0.5;stroke-dasharray:none;stroke-opacity:1"
         id="path22-2"
         cx="266.27817"
         cy="95.68914"
         r="3.5" /><text
         xml:space="preserve"
         style="font-size:7.62283px;text-align:start;writing-mode:lr-tb;direction:ltr;text-anchor:start;fill:#ffffff;fill-opacity:1;stroke:#000000;stroke-width:0;stroke-dasharray:none;stroke-opacity:1"
         x="264.34641"
         y="98.13269"
         id="text23-5"><tspan
           sodipodi:role="line"
           id="tspan23-0"
           x="264.34641"
           y="98.13269"
           style="font-style:normal;font-variant:normal;font-weight:normal;font-stretch:normal;font-size:7.62283px;font-family:Calibri;-inkscape-font-specification:Calibri;fill:#000000;fill-opacity:1;stroke-width:0;stroke-dasharray:none">2</tspan></text></g><g
       id="g23"
       inkscape:label="corner number"
       transform="translate(34.90533,8.2959416)"
       style="display:inline"><circle
         style="fill:#ffffff;fill-opacity:1;stroke:#000000;stroke-width:0.5;stroke-dasharray:none;stroke-opacity:1"
         id="path22"
         cx="266.27817"
         cy="95.68914"
         r="3.5" /><text
         xml:space="preserve"
         style="font-size:7.62283px;text-align:start;writing-mode:lr-tb;direction:ltr;text-anchor:start;fill:#ffffff;fill-opacity:1;stroke:#000000;stroke-width:0;stroke-dasharray:none;stroke-opacity:1"
         x="264.22916"
         y="98.114082"
         id="text23"><tspan
           sodipodi:role="line"
           id="tspan23"
           x="264.22916"
           y="98.114082"
           style="font-style:normal;font-variant:normal;font-weight:normal;font-stretch:normal;font-size:7.62283px;font-family:Calibri;-inkscape-font-specification:Calibri;fill:#000000;fill-opacity:1;stroke-width:0;stroke-dasharray:none">1</tspan></text></g><g
       id="g14"
       inkscape:label="cones"
       transform="translate(54.024534,15.811854)"
       style="display:inline"><g
         id="g15"
         inkscape:label="pointer wall"
         transform="translate(-12.850096,32.453555)"><g
           id="g13-4"
           inkscape:label="pointer cone"
           transform="translate(2.5366554,0.00953807)"><circle
             style="fill:#000000;stroke:#000000;stroke-width:0.156354"
             id="path12-2"
             cx="195.2234"
             cy="89.485146"
             r="0.21447209"
             inkscape:label="regular cone" /><path
             style="fill:#000000;stroke:#000000;stroke-width:0;stroke-dasharray:none"
             d="m 195.21196,89.83073 -0.21359,0.701802 h 0.45006 z"
             id="path13-3"
             inkscape:label="single pointer" /></g><g
           id="g13-8"
           inkscape:label="pointer cone"
           transform="rotate(17.227824,190.78539,97.988191)"><circle
             style="fill:#000000;stroke:#000000;stroke-width:0.156354"
             id="path12-57"
             cx="195.2234"
             cy="89.485146"
             r="0.21447209"
             inkscape:label="regular cone" /><path
             style="fill:#000000;stroke:#000000;stroke-width:0;stroke-dasharray:none"
             d="m 195.21196,89.83073 -0.21359,0.701802 h 0.45006 z"
             id="path13-6"
             inkscape:label="single pointer" /></g><g
           id="g13-7"
           inkscape:label="pointer cone"
           transform="rotate(30.929964,190.217,94.149488)"><circle
             style="fill:#000000;stroke:#000000;stroke-width:0.156354"
             id="path12-9"
             cx="195.2234"
             cy="89.485146"
             r="0.21447209"
             inkscape:label="regular cone" /><path
             style="fill:#000000;stroke:#000000;stroke-width:0;stroke-dasharray:none"
             d="m 195.21196,89.83073 -0.21359,0.701802 h 0.45006 z"
             id="path13-54"
             inkscape:label="single pointer" /></g><g
           id="g13-3"
           inkscape:label="pointer cone"
           transform="rotate(50.704494,190.72899,92.480949)"><circle
             style="fill:#000000;stroke:#000000;stroke-width:0.156354"
             id="path12-4"
             cx="195.2234"
             cy="89.485146"
             r="0.21447209"
             inkscape:label="regular cone" /><path
             style="fill:#000000;stroke:#000000;stroke-width:0;stroke-dasharray:none"
             d="m 195.21196,89.83073 -0.21359,0.701802 h 0.45006 z"
             id="path13-1"
             inkscape:label="single pointer" /></g><text
           xml:space="preserve"
           style="font-size:1.33333px;text-align:start;writing-mode:lr-tb;direction:ltr;text-anchor:start;fill:#000000;stroke:#000000;stroke-width:0;stroke-dasharray:none"
           x="241.00771"
           y="133.39594"
           id="text15-4-1-4"
           transform="translate(-40.427759,-43.297562)"><tspan
             sodipodi:role="line"
             x="241.00771"
             y="133.39594"
             style="font-size:1.33333px"
             id="tspan18-6">A REPEATING PATTERN OF REGULAR AND POINTER CONES</tspan><tspan
             sodipodi:role="line"
             x="241.00771"
             y="135.06259"
             style="font-size:1.33333px"
             id="tspan22">INDICATES A LIMIT TO THE TRACK</tspan></text><rect
           style="display:inline;fill:#000000;stroke:#000000;stroke-width:0.583392"
           id="rect12-0"
           width="1.6346743"
           height="0.82263011"
           x="81.240501"
           y="256.91486"
           inkscape:label="car"
           transform="rotate(-41.722069,-77.022329,31.39435)" /><path
           style="fill:none;stroke:#000000;stroke-width:0.234;stroke-dasharray:none;marker-end:url(#Triangle-0)"
           d="m 234.08211,136.05505 c 1.55071,-1.44474 1.81139,-3.48148 1.81139,-3.48148"
           id="path18-8"
           transform="translate(-40.427759,-43.297562)" /></g><g
         id="g13"
         inkscape:label="pointer cone"
         transform="translate(-10.715568,22.93926)"><g
           id="g9"
           inkscape:label="pointer cone origin and rotation"
           style="display:inline"
           transform="translate(-68.235804,1.3258252)"><circle
             style="display:inline;fill:#000000;stroke:#000000;stroke-width:0.156354"
             id="path12-24"
             cx="262.95334"
             cy="82.477646"
             r="0.21447209"
             inkscape:label="regular cone" /><path
             style="display:inline;fill:#000000;stroke:#000000;stroke-width:0;stroke-dasharray:none"
             d="m 262.96144,82.788074 -0.21359,0.701802 h 0.45006 z"
             id="path13-55"
             inkscape:label="single pointer" /><circle
             style="display:inline;fill:#ff0101;fill-opacity:1;stroke:#000000;stroke-width:0"
             id="path1"
             cx="262.95334"
             cy="82.477646"
             r="0.017578125"
             inkscape:label="circle origin" /><circle
             style="display:inline;fill:#ff0101;fill-opacity:1;stroke:#000000;stroke-width:0"
             id="path1-5"
             cx="262.95953"
             cy="82.792412"
             r="0.017578125"
             inkscape:label="triangle origin" /><text
             xml:space="preserve"
             style="font-size:0.168px;font-family:Calibri;-inkscape-font-specification:Calibri;text-align:start;writing-mode:lr-tb;direction:ltr;text-anchor:start;display:inline;fill:#ff0101;fill-opacity:1;stroke:#000000;stroke-width:0"
             x="308.89862"
             y="116.62477"
             id="text1"
             transform="translate(-44.589296,-34.190008)"
             inkscape:label="origin text"><tspan
               sodipodi:role="line"
               id="tspan1"
               x="308.89862"
               y="116.62477"
               style="font-size:0.168px;fill:#000000;fill-opacity:1">Regular cone origin is in the center of the cirlce</tspan><tspan
               sodipodi:role="line"
               x="308.89862"
               y="116.83477"
               style="font-size:0.168px;fill:#000000;fill-opacity:1"
               id="tspan2" /><tspan
               sodipodi:role="line"
               x="308.89862"
               y="117.04477"
               style="font-size:0.168px;fill:#000000;fill-opacity:1"
               id="tspan6">Single pointer cone triangle origin is at the vertex of the 2 long sides</tspan><tspan
               sodipodi:role="line"
               x="308.89862"
               y="117.25477"
               style="font-size:0.168px;fill:#000000;fill-opacity:1"
               id="tspan3" /><tspan
               sodipodi:role="line"
               x="308.89862"
               y="117.46477"
               style="font-size:0.168px;fill:#000000;fill-opacity:1"
               id="tspan5">Combo regular and pointer cone origin is at the center of the circle. </tspan><tspan
               sodipodi:role="line"
               x="308.89862"
               y="117.67477"
               style="font-size:0.168px;fill:#000000;fill-opacity:1"
               id="tspan4">The triangle origin is offset so that it rotates around the circle center. </tspan></text><path
             style="display:inline;fill:none;stroke:#000000;stroke-width:0.05;stroke-dasharray:none;marker-start:url(#Triangle);marker-end:url(#Triangle-0)"
             d="m 306.75136,116.3365 c 0.95795,-0.83391 1.5396,0.0603 1.5396,0.0603"
             id="path2"
             transform="translate(-44.589296,-34.190008)"
             inkscape:label="rotation arrow" /></g><circle
           style="display:inline;fill:#000000;stroke:#000000;stroke-width:0.156354"
           id="path12"
           cx="195.2234"
           cy="89.485146"
           r="0.21447209"
           inkscape:label="regular cone" /><path
           style="display:inline;fill:#000000;stroke:#000000;stroke-width:0;stroke-dasharray:none"
           d="m 195.21196,89.83073 -0.21359,0.701802 h 0.45006 z"
           id="path13"
           inkscape:label="single pointer" /><rect
           style="display:inline;fill:#000000;stroke:#000000;stroke-width:0.583392"
           id="rect12"
           width="1.6346743"
           height="0.82263011"
           x="167.14029"
           y="197.73929"
           inkscape:label="car"
           transform="rotate(-23.862535,-77.884768,88.794369)" /><text
           xml:space="preserve"
           style="font-size:1.33333px;text-align:start;writing-mode:lr-tb;direction:ltr;text-anchor:start;fill:#000000;stroke:#000000;stroke-width:0;stroke-dasharray:none"
           x="240.2868"
           y="114.22028"
           id="text15-4-1"
           transform="translate(-42.578894,-23.917531)"><tspan
             sodipodi:role="line"
             id="tspan15-2-9"
             x="240.2868"
             y="114.22028"
             style="font-size:1.33333px">THE COMBINATION OF A REGULAR AND POINTER CONE</tspan><tspan
             sodipodi:role="line"
             x="240.2868"
             y="115.88695"
             style="font-size:1.33333px"
             id="tspan18">INDICATES THE SIDE THE CAR MUST PASS ON </tspan></text><path
           style="fill:none;stroke:#000000;stroke-width:0.234;stroke-dasharray:none;marker-end:url(#Triangle)"
           d="m 235.24334,112.66301 c 1.88015,-0.97828 3.8868,-0.54284 3.8868,-0.54284"
           id="path18"
           transform="translate(-42.578894,-23.917531)" /></g><g
         id="g18"
         inkscape:label="single pointer"><path
           style="fill:#000000;stroke:#000000;stroke-width:0;stroke-dasharray:none"
           d="m 183.89946,102.19716 -0.21359,0.7018 h 0.45006 z"
           id="path13-5"
           inkscape:label="single pointer" /><text
           xml:space="preserve"
           style="font-size:1.33333px;text-align:start;writing-mode:lr-tb;direction:ltr;text-anchor:start;fill:#000000;stroke:#000000;stroke-width:0;stroke-dasharray:none"
           x="240.3358"
           y="107.45374"
           id="text15-4"
           transform="translate(-53.804864,-4.1257485)"><tspan
             sodipodi:role="line"
             id="tspan15-2"
             x="240.3358"
             y="107.45374"
             style="font-size:1.33333px">POINTER CONES REPRESENT A TRAFFIC CONE LAYING ON ITS SIDE</tspan></text></g><g
         id="g19"
         inkscape:label="regular cone"><circle
           style="fill:#000000;stroke:#000000;stroke-width:0.156354"
           id="path12-5"
           cx="183.94409"
           cy="96.076164"
           r="0.21447209"
           inkscape:label="regular cone" /><text
           xml:space="preserve"
           style="font-size:1.33333px;text-align:start;writing-mode:lr-tb;direction:ltr;text-anchor:start;fill:#000000;stroke:#000000;stroke-width:0;stroke-dasharray:none"
           x="240.22914"
           y="100.59171"
           id="text15"
           transform="translate(-53.804864,-4.1257485)"><tspan
             sodipodi:role="line"
             x="240.22914"
             y="100.59171"
             style="font-size:1.33333px"
             id="tspan17">REGULAR CONES REPRESENT A TRAFFIC CONE STANDING UPRIGHT</tspan></text></g></g><g
       id="g17"
       inkscape:label="finish line - cones"
       transform="translate(7.2706462,-0.97096723)"><g
         id="g25"><circle
           style="display:inline;fill:#000000;stroke:#000000;stroke-width:0.156354"
           id="path12-5-2-8-2"
           cx="258.29263"
           cy="101.29265"
           r="0.21447209"
           inkscape:label="regular cone" /><circle
           style="display:inline;fill:#000000;stroke:#000000;stroke-width:0.156354"
           id="path12-5-23-5-3"
           cx="259.16006"
           cy="101.29265"
           r="0.21447209"
           inkscape:label="regular cone" /><circle
           style="display:inline;fill:#000000;stroke:#000000;stroke-width:0.156354"
           id="path12-5-23-5-3-3"
           cx="260.02747"
           cy="101.29265"
           r="0.21447209"
           inkscape:label="regular cone" /><circle
           style="display:inline;fill:#000000;stroke:#000000;stroke-width:0.156354"
           id="path12-5-23-5-3-7"
           cx="260.8949"
           cy="101.29265"
           r="0.21447209"
           inkscape:label="regular cone" /><circle
           style="display:inline;fill:#000000;stroke:#000000;stroke-width:0.156354"
           id="path12-5-23-5-3-9"
           cx="261.7623"
           cy="101.29265"
           r="0.21447209"
           inkscape:label="regular cone" /><circle
           style="display:inline;fill:#000000;stroke:#000000;stroke-width:0.156354"
           id="path12-5-23-5-3-2"
           cx="262.62973"
           cy="101.29265"
           r="0.21447209"
           inkscape:label="regular cone" /><circle
           style="display:inline;fill:#000000;stroke:#000000;stroke-width:0.156354"
           id="path12-5-23-5-3-4"
           cx="263.49713"
           cy="101.29265"
           r="0.21447209"
           inkscape:label="regular cone" /><circle
           style="display:inline;fill:#000000;stroke:#000000;stroke-width:0.156354"
           id="path12-5-23-5-3-90"
           cx="264.36456"
           cy="101.29265"
           r="0.21447209"
           inkscape:label="regular cone" /><circle
           style="display:inline;fill:#000000;stroke:#000000;stroke-width:0.156354"
           id="path12-5-23-5-3-8"
           cx="265.23196"
           cy="101.29265"
           r="0.21447209"
           inkscape:label="regular cone" /><circle
           style="display:inline;fill:#000000;stroke:#000000;stroke-width:0.156354"
           id="path12-5-23-5-3-6"
           cx="266.0994"
           cy="101.29265"
           r="0.21447209"
           inkscape:label="regular cone" /></g><g
         id="g24"
         transform="translate(-0.00523376,2.032932)"><circle
           style="display:inline;fill:#000000;stroke:#000000;stroke-width:0.156354"
           id="path12-5-2-8-2-8"
           cx="258.29785"
           cy="103.12714"
           r="0.21447209"
           inkscape:label="regular cone" /><circle
           style="display:inline;fill:#000000;stroke:#000000;stroke-width:0.156354"
           id="path12-5-23-5-3-49"
           cx="259.16531"
           cy="103.12714"
           r="0.21447209"
           inkscape:label="regular cone" /><circle
           style="display:inline;fill:#000000;stroke:#000000;stroke-width:0.156354"
           id="path12-5-23-5-3-3-6"
           cx="260.03271"
           cy="103.12714"
           r="0.21447209"
           inkscape:label="regular cone" /><circle
           style="display:inline;fill:#000000;stroke:#000000;stroke-width:0.156354"
           id="path12-5-23-5-3-7-3"
           cx="260.90015"
           cy="103.12714"
           r="0.21447209"
           inkscape:label="regular cone" /><circle
           style="display:inline;fill:#000000;stroke:#000000;stroke-width:0.156354"
           id="path12-5-23-5-3-9-7"
           cx="261.76755"
           cy="103.12714"
           r="0.21447209"
           inkscape:label="regular cone" /><circle
           style="display:inline;fill:#000000;stroke:#000000;stroke-width:0.156354"
           id="path12-5-23-5-3-2-8"
           cx="262.63498"
           cy="103.12714"
           r="0.21447209"
           inkscape:label="regular cone" /><circle
           style="display:inline;fill:#000000;stroke:#000000;stroke-width:0.156354"
           id="path12-5-23-5-3-4-8"
           cx="263.50238"
           cy="103.12714"
           r="0.21447209"
           inkscape:label="regular cone" /><circle
           style="display:inline;fill:#000000;stroke:#000000;stroke-width:0.156354"
           id="path12-5-23-5-3-90-2"
           cx="264.36981"
           cy="103.12714"
           r="0.21447209"
           inkscape:label="regular cone" /><circle
           style="display:inline;fill:#000000;stroke:#000000;stroke-width:0.156354"
           id="path12-5-23-5-3-8-9"
           cx="265.23721"
           cy="103.12714"
           r="0.21447209"
           inkscape:label="regular cone" /><circle
           style="display:inline;fill:#000000;stroke:#000000;stroke-width:0.156354"
           id="path12-5-23-5-3-6-1"
           cx="266.10464"
           cy="103.12714"
           r="0.21447209"
           inkscape:label="regular cone" /></g><text
         xml:space="preserve"
         style="font-size:1.33333px;text-align:start;writing-mode:lr-tb;direction:ltr;text-anchor:start;display:inline;fill:#000000;stroke:#000000;stroke-width:0;stroke-dasharray:none"
         x="257.75446"
         y="108.22019"
         id="text15-7-9-4"><tspan
           sodipodi:role="line"
           x="257.75446"
           y="108.22019"
           style="font-size:1.33333px"
           id="tspan17-7-9-0">FINISH LINE</tspan></text><g
         id="g27"
         style="display:inline"
         transform="matrix(1,0,0,0.85123603,24.24846,23.36319)"><rect
           style="fill:#000000;fill-opacity:1;stroke:#656565;stroke-width:0;stroke-dasharray:none;stroke-opacity:1"
           id="rect19"
           width="0.28710106"
           height="0.28710106"
           x="233.71089"
           y="92.404007" /><rect
           style="fill:#000000;fill-opacity:1;stroke:#656565;stroke-width:0;stroke-dasharray:none;stroke-opacity:1"
           id="rect19-7"
           width="0.28710106"
           height="0.28710106"
           x="234.00046"
           y="92.688812" /><rect
           style="fill:#000000;fill-opacity:1;stroke:#656565;stroke-width:0;stroke-dasharray:none;stroke-opacity:1"
           id="rect19-1"
           width="0.28710106"
           height="0.28710106"
           x="233.72266"
           y="92.96875" /><rect
           style="fill:#000000;fill-opacity:1;stroke:#656565;stroke-width:0;stroke-dasharray:none;stroke-opacity:1"
           id="rect19-7-3"
           width="0.28710106"
           height="0.28710106"
           x="234.01222"
           y="93.253555" /><rect
           style="fill:#000000;fill-opacity:1;stroke:#656565;stroke-width:0;stroke-dasharray:none;stroke-opacity:1"
           id="rect19-1-0"
           width="0.28710106"
           height="0.28710106"
           x="233.72656"
           y="93.53125" /><rect
           style="fill:#000000;fill-opacity:1;stroke:#656565;stroke-width:0;stroke-dasharray:none;stroke-opacity:1"
           id="rect19-7-3-7"
           width="0.28710106"
           height="0.28710106"
           x="234.01613"
           y="93.816055" /><rect
           style="fill:#000000;fill-opacity:1;stroke:#656565;stroke-width:0;stroke-dasharray:none;stroke-opacity:1"
           id="rect19-1-5"
           width="0.28710106"
           height="0.28710106"
           x="233.73047"
           y="94.101562" /><rect
           style="fill:#000000;fill-opacity:1;stroke:#656565;stroke-width:0;stroke-dasharray:none;stroke-opacity:1"
           id="rect19-7-3-4"
           width="0.28710106"
           height="0.28710106"
           x="234.02003"
           y="94.386368" /><rect
           style="fill:#000000;fill-opacity:1;stroke:#656565;stroke-width:0;stroke-dasharray:none;stroke-opacity:1"
           id="rect19-1-3"
           width="0.28710106"
           height="0.28710106"
           x="233.73828"
           y="94.667969" /><rect
           style="fill:#000000;fill-opacity:1;stroke:#656565;stroke-width:0;stroke-dasharray:none;stroke-opacity:1"
           id="rect19-7-3-72"
           width="0.28710106"
           height="0.28710106"
           x="234.02785"
           y="94.952774" /></g></g><g
       id="g12"
       style="display:inline"
       transform="translate(13.273799,8.9939417)"
       inkscape:label="timing start"><circle
         style="display:inline;fill:#000000;stroke:#000000;stroke-width:0.156354"
         id="path12-5-2"
         cx="238.7914"
         cy="95.778786"
         r="0.21447209"
         inkscape:label="regular cone" /><circle
         style="display:inline;fill:#000000;stroke:#000000;stroke-width:0.156354"
         id="path12-5-23"
         cx="239.54269"
         cy="95.778786"
         r="0.21447209"
         inkscape:label="regular cone" /><circle
         style="display:inline;fill:#000000;stroke:#000000;stroke-width:0.156354"
         id="path12-5-2-8"
         cx="238.7914"
         cy="91.900963"
         r="0.21447209"
         inkscape:label="regular cone" /><circle
         style="display:inline;fill:#000000;stroke:#000000;stroke-width:0.156354"
         id="path12-5-23-5"
         cx="239.54269"
         cy="91.900963"
         r="0.21447209"
         inkscape:label="regular cone" /><text
         xml:space="preserve"
         style="font-size:1.33333px;text-align:start;writing-mode:lr-tb;direction:ltr;text-anchor:start;display:inline;fill:#000000;stroke:#000000;stroke-width:0;stroke-dasharray:none"
         x="235.0536"
         y="98.168961"
         id="text15-7-6-9"><tspan
           sodipodi:role="line"
           x="235.0536"
           y="98.168961"
           style="font-size:1.33333px"
           id="tspan17-7-6-2">TIMING START</tspan></text></g><g
       id="g21"
       inkscape:label="start line - cones"
       transform="translate(4.1697984,9.1707183)"
       style="display:inline"><text
         xml:space="preserve"
         style="font-size:1.33333px;text-align:start;writing-mode:lr-tb;direction:ltr;text-anchor:start;fill:#000000;stroke:#000000;stroke-width:0;stroke-dasharray:none"
         x="231.31213"
         y="97.807549"
         id="text15-7-6"><tspan
           sodipodi:role="line"
           x="231.31213"
           y="97.807549"
           style="font-size:1.33333px"
           id="tspan17-7-6">START LINE</tspan></text><circle
         style="display:inline;fill:#000000;stroke:#000000;stroke-width:0.156354"
         id="path12-5-8"
         cx="234.87457"
         cy="95.778786"
         r="0.21447209"
         inkscape:label="regular cone" /><circle
         style="display:inline;fill:#000000;stroke:#000000;stroke-width:0.156354"
         id="path12-5-1"
         cx="234.84685"
         cy="91.900963"
         r="0.21447209"
         inkscape:label="regular cone" /><g
         id="g26"
         style="display:inline"
         transform="matrix(1,0,0,0.85207654,-0.02491262,13.890973)"><rect
           style="fill:#000000;fill-opacity:1;stroke:#656565;stroke-width:0;stroke-dasharray:none;stroke-opacity:1"
           id="rect19-7-3-72-5"
           width="0.58006978"
           height="2.8378823"
           x="234.58984"
           y="92.390625" /><rect
           style="fill:#ffffff;fill-opacity:1;stroke:#656565;stroke-width:0;stroke-dasharray:none;stroke-opacity:1"
           id="rect19-7-3-72-5-2"
           width="0.04100728"
           height="2.8378823"
           x="235.07031"
           y="92.390999" /><rect
           style="fill:#ffffff;fill-opacity:1;stroke:#656565;stroke-width:0;stroke-dasharray:none;stroke-opacity:1"
           id="rect19-7-3-72-5-2-6"
           width="0.041000001"
           height="2.8373785"
           x="234.65234"
           y="92.390999" /></g></g><g
       id="g22"
       inkscape:label="car"
       style="display:inline"
       transform="translate(1.2803301,8.0747475)"><rect
         style="display:inline;fill:#000000;stroke:#000000;stroke-width:0.583392"
         id="rect12-2"
         width="1.6346743"
         height="0.82263011"
         x="237.06956"
         y="87.24453"
         inkscape:label="car" /><text
         xml:space="preserve"
         style="font-size:1.33333px;text-align:start;writing-mode:lr-tb;direction:ltr;text-anchor:start;fill:#000000;stroke:#000000;stroke-width:0;stroke-dasharray:none"
         x="240.96353"
         y="88.083328"
         id="text15-7"><tspan
           sodipodi:role="line"
           x="240.96353"
           y="88.083328"
           style="font-size:1.33333px"
           id="tspan17-7">CAR</tspan></text></g></g></svg>
